Genre:Drama
Language:English  http://www.imdb.com/title/tt1371160/
Source:LIMITED.1080p.BluRay.x264-NOHD


Format : Matroska
File size : 2.21 GiB
Duration : 1h 51mn
Overall bit rate : 2 837 Kbps


Video
Format settings, CABAC : Yes
Format settings, ReFrames : 4 frames
Codec ID : V_MPEG4/ISO/AVC
Duration : 1h 51mn
Bit rate : 2 500 Kbps
Width : 1 280 pixels
Height : 720 pixels
Display aspect ratio : 16:9
Frame rate mode : Variable
Frame rate : 24.000 fps
Color space : YUV
Chroma subsampling : 4:2:0
Bit depth : 8 bits
Scan type : Progressive
Bits/(Pixel*Frame) : 0.113
Stream size : 1.86 GiB (84%)
Writing library : x264


Audio
ID : 2
Format : AC-3
Format/Info : Audio Coding 3
Mode extension : CM (complete main)
Codec ID : A_AC3
Duration : 1h 51mn
Bit rate mode : Constant
Bit rate : 384 Kbps
Channel(s) : 6 channels
Channel positions : Front: L C R, Side: L R, LFE
Sampling rate : 48.0 KHz
Bit depth : 16 bits
Video delay : -1mn 5s
Stream size : 306 MiB (14%)
Language : English


Plot:
About Kevin Lewis who grew up in poverty but survived to make a better life for himself and his family.
